<?xml version="1.0" encoding="utf-8"?>
<!-- Generator: Adobe Illustrator 23.0.2, SVG Export Plug-In . SVG Version: 6.00 Build 0)  -->
<svg version="1.1" id="Layer_1" xmlns="http://www.w3.org/2000/svg" xmlns:xlink="http://www.w3.org/1999/xlink" x="0px" y="0px"
	 viewBox="0 0 387.8 417.4" style="enable-background:new 0 0 387.8 417.4;" xml:space="preserve">
<style type="text/css">
	.st0{fill:#F44D01;}
	.st1{fill:#FFFFFF;}
</style>
<g>
	<path class="st0" d="M387.8,120.4c0-42.6-10.4-73.3-31.1-92.1C335.9,9.4,302.6,0,256.7,0H0l23.2,23.2L0,46.3v0.1l23.2,23.2L0,92.7
		v0.1l23.2,23.2L0,139.1v0.1l23.2,23.2L0,185.5v0.1l23.2,23.2L0,231.9v0.1l23.2,23.2L0,278.2v0.1l23.2,23.2L0,324.6v0.1l23.2,23.2
		L0,371v0.1l23.2,23.2L0,417.4h256.7c45.9,0,79.2-9.4,100-28.2c20.8-18.8,31.1-49.5,31.1-92.1v-23.3c0-27.9-6.6-49.6-19.8-65
		c13.2-15.5,19.8-37.1,19.8-65V120.4z M227.6,334.5h-41.5V221.1h19c12.4,0,22.5,10.1,22.5,22.5V334.5z M206.9,184
		c-19.1,0-34.6-15.5-34.6-34.6c0-19.1,15.5-34.6,34.6-34.6s34.6,15.5,34.6,34.6C241.5,168.5,226,184,206.9,184z"/>
	<rect x="145.3" y="106.7" class="st1" width="131.6" height="228.3"/>
	<path d="M287.2,211.4l-0.3-3.4c11.4-4.3,20.1-12,26.2-23.1c6.1-11.1,9.2-24.3,9.2-39.5c0-27-7.7-46.5-23.2-58.5
		c-15.4-12-37.8-18-67.1-18H109.7H92.3H65.5l22.2,22.2l-22.2,22.2l22.2,22.2l-22.1,22.1l22.1,22.1L65.5,202l22.2,22.2l-22.1,22.1
		l22.1,22.1l-22.2,22.2l22.2,22.2l-22.2,22.2h27.2v0h93.4V221.7h19c12.4,0,22.5,10.1,22.5,22.5v90.9h92.3v-83.5
		C319.9,228.2,309,214.8,287.2,211.4z M206.9,184.4c-19.1,0-34.5-15.5-34.5-34.5c0-19.1,15.5-34.5,34.5-34.5s34.5,15.5,34.5,34.5
		C241.5,169,226,184.4,206.9,184.4z"/>
</g>
</svg>
