<?xml version="1.0" encoding="utf-8"?>
<!-- Generator: Adobe Illustrator 23.0.2, SVG Export Plug-In . SVG Version: 6.00 Build 0)  -->
<svg version="1.1" id="Layer_1" xmlns="http://www.w3.org/2000/svg" xmlns:xlink="http://www.w3.org/1999/xlink" x="0px" y="0px"
	 viewBox="0 0 2007.1 215.7" style="enable-background:new 0 0 2007.1 215.7;" xml:space="preserve">
<style type="text/css">
	.st0{fill:#F44D01;}
	.st1{fill:#FFFFFF;}
</style>
<g>
	<g>
		<path d="M384.2,106.9c-3.6,5.4-8.8,9.3-15.7,11.9l24.2,45.6h-39.2l-19.3-39.7h-13v39.7h-35V55.5h66.6c7.8,0,14.5,1.5,20,4.5
			c5.5,3,9.7,7.1,12.5,12.2c2.8,5.1,4.2,10.7,4.2,16.7C389.6,95.5,387.8,101.5,384.2,106.9z M351.1,83.2c-1.9-1.9-4.2-2.8-7-2.8
			h-22.9v20.1h22.9c2.7,0,5.1-1,7-2.9c1.9-2,2.8-4.4,2.8-7.2S353,85.1,351.1,83.2z"/>
		<path d="M472.3,164.3l-2.1-12.7c-3.3,4.5-7.6,8.1-12.9,10.7c-5.3,2.6-10.9,3.9-16.8,3.9c-9.7,0-17-2.7-21.8-8.1
			c-4.9-5.4-7.3-13.1-7.3-23.3V80.8h31.5v50.3c0,3.6,0.9,6.5,2.8,8.6c1.8,2.2,4.5,3.2,7.8,3.2c3.9,0,7.1-1.3,9.5-3.8
			c2.4-2.5,3.6-5.6,3.6-9.3v-49h31.5v83.5H472.3z"/>
		<path d="M592.6,85.5c7.8,4.4,11.6,11.2,11.6,20.3H575c0-3.1-1.4-5.2-4.1-6.5c-1.9-1.1-4.3-1.6-7.1-1.6c-7.6,0-11.4,1.8-11.4,5.4
			c0,2,1.3,3.4,4,4.3c2.6,0.8,7,1.7,13,2.7c7.4,1.1,13.6,2.3,18.5,3.7c5,1.4,9.3,4,13,7.6c3.7,3.6,5.5,8.7,5.5,15.3
			c0,10.7-4,18.2-11.9,22.8c-8,4.5-18.4,6.8-31.2,6.8c-7.4,0-14.3-1-20.9-3.1c-6.5-2.1-11.9-5.2-16-9.6c-4.1-4.3-6.2-9.8-6.2-16.5
			h29.3v0.6c0.1,3.6,1.6,6.1,4.5,7.5c2.9,1.4,6,2.1,9.3,2.1c8.8,0,13.1-2.1,13.1-6.2c0-2.1-1.4-3.6-4.1-4.6c-2.7-0.9-7.2-1.9-13.4-3
			c-7.5-1.3-13.6-2.6-18.4-4.1c-4.8-1.5-9-4-12.6-7.5c-3.6-3.5-5.4-8.5-5.4-14.8c0-10.2,3.9-17.5,11.6-21.8
			c7.8-4.3,17.9-6.5,30.3-6.5C575.4,78.9,584.9,81.1,592.6,85.5z"/>
		<path d="M684.2,80.8v21.4h-17.7V134c0,3.8,0.6,6.6,1.9,8.3c1.3,1.7,3.6,2.6,7,2.6h8.9v18.5c-2.5,0.8-5.8,1.5-9.8,2.1
			c-4,0.5-7.5,0.8-10.4,0.8c-9.3,0-16.4-1.7-21.4-5.1c-5-3.4-7.5-9.1-7.5-17.2v-41.8h-11.7V80.8h13l6.8-25.3h23.4v25.3H684.2z"/>
		<path d="M767.1,71V49.6h31.5V71H767.1z M767.1,164.3V80.8h31.5v83.5H767.1z"/>
		<path d="M905.3,87c4.8,5.4,7.3,13.1,7.3,23.3v54.1h-31.5V114c0-3.6-0.9-6.5-2.8-8.6c-1.8-2.2-4.5-3.2-7.8-3.2
			c-3.9,0-7.1,1.3-9.5,3.8c-2.4,2.5-3.6,5.6-3.6,9.3v49h-31.5V80.8h25.8l2.1,12.7c3.3-4.4,7.6-8,12.9-10.6c5.3-2.6,10.9-4,16.8-4
			C893.2,78.9,900.5,81.6,905.3,87z"/>
		<path d="M1088.5,58.9c4.6,2.3,8.2,5.5,10.9,9.6c2.7,4.1,4,8.7,4,13.8c0,13.4-6.1,21.8-18.2,25.3v0.6c13.8,3.2,20.7,12.2,20.7,27.2
			c0,5.7-1.4,10.7-4.2,15.1c-2.8,4.4-6.6,7.8-11.5,10.2c-4.9,2.4-10.2,3.6-16,3.6h-73.4V55.5h72.5
			C1078.8,55.5,1083.9,56.6,1088.5,58.9z M1035.8,97.9h24c2.3,0,4.2-0.8,5.8-2.5c1.5-1.6,2.3-3.7,2.3-6.1v-1.6
			c0-2.3-0.8-4.3-2.4-5.9c-1.6-1.6-3.5-2.5-5.7-2.5h-24V97.9z M1035.8,139h26.6c2.3,0,4.2-0.8,5.8-2.5c1.5-1.6,2.3-3.7,2.3-6.1v-1.6
			c0-2.4-0.8-4.5-2.3-6.1c-1.5-1.6-3.5-2.5-5.8-2.5h-26.6V139z"/>
		<path d="M1130.1,164.3V49.6h31.5v114.7H1130.1z"/>
		<path d="M1266.8,90c8.4,7.4,12.6,18.3,12.6,32.5c0,14.2-4.2,25.1-12.6,32.5c-8.4,7.4-19.9,11.2-34.6,11.2
			c-14.7,0-26.2-3.7-34.5-11.1c-8.3-7.4-12.5-18.2-12.5-32.6c0-14.3,4.2-25.2,12.5-32.6c8.3-7.4,19.8-11.1,34.5-11.1
			C1246.8,78.9,1258.4,82.6,1266.8,90z M1216.7,118.1v9c0,11.8,5.2,17.7,15.5,17.7c10.4,0,15.7-5.9,15.7-17.7v-9
			c0-11.9-5.2-17.9-15.7-17.9C1221.8,100.3,1216.7,106.2,1216.7,118.1z"/>
		<path d="M1378.3,87.7c8.5,5.9,12.7,14.8,12.7,26.8h-30.5c0-9.5-5.2-14.2-15.5-14.2c-10.3,0-15.5,6-15.5,17.9v9
			c0,11.8,5.4,17.7,16.1,17.7c10.8,0,16.1-4.9,16.1-14.6h29.3c0,12.1-4.2,21.1-12.7,27.1c-8.5,5.9-19.6,8.9-33.3,8.9
			c-14.7,0-26.2-3.7-34.5-11.1c-8.3-7.4-12.5-18.2-12.5-32.6c0-14.3,4.2-25.2,12.5-32.6c8.3-7.4,19.8-11.1,34.5-11.1
			C1358.7,78.9,1369.8,81.8,1378.3,87.7z"/>
		<path d="M1470.1,80.8h36.7l-30.9,33.7l31.6,49.8h-35.8l-17.6-28.6l-10.9,10.6v18h-31.5V49.5h31.5v63.3L1470.1,80.8z"/>
		<path d="M1601.2,87.7c8.5,5.9,12.7,14.8,12.7,26.8h-30.5c0-9.5-5.2-14.2-15.5-14.2c-10.3,0-15.5,6-15.5,17.9v9
			c0,11.8,5.4,17.7,16.1,17.7s16.1-4.9,16.1-14.6h29.3c0,12.1-4.2,21.1-12.7,27.1c-8.5,5.9-19.6,8.9-33.3,8.9
			c-14.7,0-26.2-3.7-34.5-11.1c-8.3-7.4-12.5-18.2-12.5-32.6c0-14.3,4.2-25.2,12.5-32.6c8.3-7.4,19.8-11.1,34.5-11.1
			C1581.6,78.9,1592.7,81.8,1601.2,87.7z"/>
		<path d="M1678.2,81.7c4.5-1.8,9.3-2.8,14.2-2.8c9.7,0,17,2.7,21.8,8.1c4.8,5.4,7.3,13.1,7.3,23.3v54.1H1690V114
			c0-3.6-0.9-6.5-2.8-8.6c-1.8-2.2-4.5-3.2-7.8-3.2c-3.9,0-7.1,1.3-9.5,3.8c-2.4,2.5-3.6,5.6-3.6,9.3v49h-31.5V49.6h31.5v39.9
			C1669.7,86.1,1673.6,83.5,1678.2,81.7z"/>
		<path d="M1820.1,85.3c8,4.3,12,11.2,12,20.8v32.6c0,1.8,0.4,3.3,1.3,4.4c0.8,1.2,2.1,1.7,3.8,1.7h5.7v18.2c-0.3,0.2-1.1,0.6-2.5,1
			c-1.3,0.5-3.2,0.9-5.6,1.4c-2.4,0.5-5.2,0.7-8.4,0.7c-6.1,0-11.2-0.9-15.1-2.8c-4-1.8-6.7-4.4-8.1-7.7c-4,3.2-8.5,5.7-13.4,7.6
			c-5,1.9-10.8,2.8-17.4,2.8c-19.6,0-29.4-7.8-29.4-23.4c0-8.1,2.2-14.3,6.6-18.6c4.4-4.3,10.7-7.2,18.9-8.8
			c8.2-1.6,19-2.4,32.3-2.4V109c0-3.3-1.1-5.7-3.4-7.4c-2.3-1.7-5.2-2.5-8.8-2.5c-3.3,0-6.1,0.6-8.5,1.7c-2.4,1.2-3.6,3-3.6,5.5v0.6
			h-31c-0.1-0.5-0.2-1.3-0.2-2.2c0-7.9,3.8-14.2,11.3-18.8c7.5-4.6,18.3-7,32.4-7C1801.7,78.9,1812.1,81,1820.1,85.3z M1780.8,130.9
			c-4.3,2-6.4,4.6-6.4,7.8c0,5.3,3.6,7.9,10.8,7.9c4.1,0,7.7-1.1,10.8-3.3c3.1-2.2,4.7-5,4.7-8.2v-7.1
			C1791.7,127.9,1785,128.9,1780.8,130.9z"/>
		<path d="M1861.5,71V49.6h31.5V71H1861.5z M1861.5,164.3V80.8h31.5v83.5H1861.5z"/>
		<path d="M1999.8,87c4.8,5.4,7.3,13.1,7.3,23.3v54.1h-31.5V114c0-3.6-0.9-6.5-2.8-8.6c-1.8-2.2-4.5-3.2-7.8-3.2
			c-3.9,0-7.1,1.3-9.5,3.8c-2.4,2.5-3.6,5.6-3.6,9.3v49h-31.5V80.8h25.8l2.1,12.7c3.3-4.4,7.6-8,12.9-10.6c5.3-2.6,10.9-4,16.8-4
			C1987.7,78.9,1995,81.6,1999.8,87z"/>
	</g>
</g>
<g>
	<path class="st0" d="M200.4,62.2c0-22-5.4-37.9-16.1-47.6C173.6,4.9,156.4,0,132.6,0H0l12,12l-12,12v0l12,12l-12,12v0l12,12l-12,12
		v0l12,12l-12,12v0l12,12l-12,12v0l12,12l-12,12v0l12,12l-12,12v0l12,12l-12,12v0l12,12l-12,12h132.6c23.7,0,40.9-4.9,51.7-14.6
		c10.7-9.7,16.1-25.6,16.1-47.6v-12.1c0-14.4-3.4-25.6-10.2-33.6c6.8-8,10.2-19.2,10.2-33.6V62.2z M117.6,172.8H96.2v-58.6h9.8
		c6.4,0,11.6,5.2,11.6,11.6V172.8z M106.9,95.1c-9.9,0-17.9-8-17.9-17.9c0-9.9,8-17.9,17.9-17.9s17.9,8,17.9,17.9
		C124.8,87.1,116.8,95.1,106.9,95.1z"/>
	<rect x="75.1" y="55.2" class="st1" width="68" height="118"/>
	<path d="M148.4,109.3l-0.2-1.8c5.9-2.2,10.4-6.2,13.6-12c3.2-5.7,4.8-12.5,4.8-20.4c0-14-4-24-12-30.2c-8-6.2-19.5-9.3-34.7-9.3
		H56.7h-9H33.9l11.5,11.5L33.9,58.6l11.5,11.5L33.9,81.5l11.4,11.4l-11.5,11.5l11.5,11.5l-11.4,11.4l11.4,11.4l-11.5,11.5l11.5,11.5
		l-11.5,11.5h14v0h48.3v-58.6h9.8c6.4,0,11.6,5.2,11.6,11.6v47h47.7V130C165.3,117.9,159.7,111,148.4,109.3z M106.9,95.3
		c-9.9,0-17.9-8-17.9-17.8c0-9.9,8-17.8,17.9-17.8s17.9,8,17.9,17.8C124.8,87.3,116.8,95.3,106.9,95.3z"/>
</g>
</svg>
