<?xml version="1.0" encoding="utf-8"?>
<!-- Generator: Adobe Illustrator 23.0.2, SVG Export Plug-In . SVG Version: 6.00 Build 0)  -->
<svg version="1.1" id="Layer_1" xmlns="http://www.w3.org/2000/svg" xmlns:xlink="http://www.w3.org/1999/xlink" x="0px" y="0px"
	 viewBox="0 0 886.2 534.9" style="enable-background:new 0 0 886.2 534.9;" xml:space="preserve">
<style type="text/css">
	.st0{fill:#F44D01;}
	.st1{fill:#FFFFFF;}
</style>
<g>
	<g>
		<g>
			<path d="M50.4,504.3c-1.8,2.8-4.5,4.8-8.1,6.1l12.5,23.5H34.6l-9.9-20.5H18v20.5H0v-56.1h34.3c4,0,7.5,0.8,10.3,2.3
				c2.9,1.5,5,3.6,6.4,6.3c1.4,2.6,2.2,5.5,2.2,8.6C53.2,498.4,52.3,501.5,50.4,504.3z M33.4,492.1c-1-1-2.2-1.5-3.6-1.5H18V501
				h11.8c1.4,0,2.6-0.5,3.6-1.5c1-1,1.5-2.2,1.5-3.7S34.4,493.1,33.4,492.1z"/>
			<path d="M95.8,533.9l-1.1-6.5c-1.7,2.3-3.9,4.2-6.6,5.5c-2.7,1.3-5.6,2-8.7,2c-5,0-8.7-1.4-11.2-4.2c-2.5-2.8-3.7-6.8-3.7-12
				v-27.9h16.2v25.9c0,1.8,0.5,3.3,1.4,4.4c0.9,1.1,2.3,1.7,4,1.7c2,0,3.6-0.7,4.9-2c1.2-1.3,1.9-2.9,1.9-4.8v-25.3h16.2v43H95.8z"
				/>
			<path d="M157.8,493.3c4,2.3,6,5.7,6,10.5h-15.1c0-1.6-0.7-2.7-2.1-3.3c-1-0.5-2.2-0.8-3.7-0.8c-3.9,0-5.9,0.9-5.9,2.8
				c0,1,0.7,1.8,2,2.2c1.4,0.4,3.6,0.9,6.7,1.4c3.8,0.5,7,1.2,9.5,1.9c2.6,0.7,4.8,2,6.7,3.9s2.9,4.5,2.9,7.9
				c0,5.5-2.1,9.4-6.2,11.7c-4.1,2.3-9.5,3.5-16.1,3.5c-3.8,0-7.4-0.5-10.8-1.6c-3.4-1.1-6.1-2.7-8.2-4.9c-2.1-2.2-3.2-5.1-3.2-8.5
				h15.1v0.3c0.1,1.8,0.8,3.1,2.3,3.9c1.5,0.7,3.1,1.1,4.8,1.1c4.5,0,6.8-1.1,6.8-3.2c0-1.1-0.7-1.9-2.1-2.4c-1.4-0.5-3.7-1-6.9-1.5
				c-3.9-0.7-7-1.4-9.5-2.1c-2.5-0.8-4.6-2-6.5-3.9c-1.8-1.8-2.8-4.4-2.8-7.6c0-5.3,2-9,6-11.2c4-2.2,9.2-3.3,15.6-3.3
				C148.9,489.9,153.8,491,157.8,493.3z"/>
			<path d="M204.9,490.9v11h-9.1v16.4c0,2,0.3,3.4,1,4.3c0.7,0.9,1.8,1.3,3.6,1.3h4.6v9.5c-1.3,0.4-3,0.8-5.1,1.1
				c-2.1,0.3-3.9,0.4-5.4,0.4c-4.8,0-8.5-0.9-11-2.6c-2.6-1.7-3.9-4.7-3.9-8.9v-21.5h-6v-11h6.7l3.5-13h12.1v13H204.9z"/>
			<path d="M247.6,485.8v-11h16.2v11H247.6z M247.6,533.9v-43h16.2v43H247.6z"/>
			<path d="M318.8,494c2.5,2.8,3.7,6.8,3.7,12v27.9h-16.2V508c0-1.8-0.5-3.3-1.4-4.4c-1-1.1-2.3-1.7-4-1.7c-2,0-3.6,0.7-4.9,2
				c-1.3,1.3-1.9,2.9-1.9,4.8v25.3h-16.2v-43h13.3l1.1,6.5c1.7-2.3,3.9-4.1,6.6-5.5c2.7-1.4,5.6-2,8.7-2
				C312.6,489.9,316.3,491.3,318.8,494z"/>
			<path d="M413.1,479.6c2.4,1.2,4.2,2.8,5.6,4.9c1.4,2.1,2.1,4.5,2.1,7.1c0,6.9-3.1,11.2-9.4,13v0.3c7.1,1.6,10.7,6.3,10.7,14
				c0,2.9-0.7,5.5-2.2,7.8c-1.4,2.3-3.4,4-5.9,5.3c-2.5,1.3-5.2,1.9-8.2,1.9H368v-56.1h37.3C408.2,477.8,410.8,478.4,413.1,479.6z
				 M386,499.7h12.4c1.2,0,2.2-0.4,3-1.3c0.8-0.8,1.2-1.9,1.2-3.1v-0.8c0-1.2-0.4-2.2-1.2-3.1c-0.8-0.8-1.8-1.3-2.9-1.3H386V499.7z
				 M386,520.8h13.7c1.2,0,2.2-0.4,3-1.3c0.8-0.8,1.2-1.9,1.2-3.1v-0.8c0-1.2-0.4-2.3-1.2-3.1c-0.8-0.8-1.8-1.3-3-1.3H386V520.8z"/>
			<path d="M434.6,533.9v-59.1h16.2v59.1H434.6z"/>
			<path d="M505,495.6c4.3,3.8,6.5,9.4,6.5,16.7c0,7.3-2.2,12.9-6.5,16.7c-4.3,3.8-10.3,5.7-17.8,5.7c-7.6,0-13.5-1.9-17.8-5.7
				c-4.3-3.8-6.4-9.4-6.4-16.8c0-7.4,2.1-13,6.4-16.8c4.3-3.8,10.2-5.7,17.8-5.7C494.7,489.9,500.6,491.8,505,495.6z M479.2,510.1
				v4.6c0,6.1,2.7,9.1,8,9.1c5.4,0,8.1-3,8.1-9.1v-4.6c0-6.1-2.7-9.2-8.1-9.2C481.8,500.9,479.2,504,479.2,510.1z"/>
			<path d="M562.4,494.4c4.4,3,6.6,7.6,6.6,13.8h-15.7c0-4.9-2.7-7.3-8-7.3c-5.3,0-8,3.1-8,9.2v4.6c0,6.1,2.8,9.1,8.3,9.1
				s8.3-2.5,8.3-7.5H569c0,6.2-2.2,10.9-6.6,13.9c-4.4,3-10.1,4.6-17.2,4.6c-7.6,0-13.5-1.9-17.8-5.7c-4.3-3.8-6.4-9.4-6.4-16.8
				c0-7.4,2.1-13,6.4-16.8c4.3-3.8,10.2-5.7,17.8-5.7C552.3,489.9,558,491.4,562.4,494.4z"/>
			<path d="M609.7,490.9h18.9l-15.9,17.4l16.3,25.7h-18.4l-9-14.7l-5.6,5.5v9.3h-16.2v-59.2h16.2v32.6L609.7,490.9z"/>
			<path d="M677.2,494.4c4.4,3,6.6,7.6,6.6,13.8H668c0-4.9-2.7-7.3-8-7.3c-5.3,0-8,3.1-8,9.2v4.6c0,6.1,2.8,9.1,8.3,9.1
				s8.3-2.5,8.3-7.5h15.1c0,6.2-2.2,10.9-6.6,13.9c-4.4,3-10.1,4.6-17.2,4.6c-7.6,0-13.5-1.9-17.8-5.7c-4.3-3.8-6.4-9.4-6.4-16.8
				c0-7.4,2.1-13,6.4-16.8c4.3-3.8,10.2-5.7,17.8-5.7C667.1,489.9,672.8,491.4,677.2,494.4z"/>
			<path d="M716.8,491.3c2.3-0.9,4.8-1.4,7.3-1.4c5,0,8.7,1.4,11.2,4.2c2.5,2.8,3.7,6.8,3.7,12v27.9H723V508c0-1.8-0.5-3.3-1.4-4.4
				c-1-1.1-2.3-1.7-4-1.7c-2,0-3.6,0.7-4.9,2c-1.3,1.3-1.9,2.9-1.9,4.8v25.3h-16.2v-59.1h16.2v20.5
				C712.5,493.6,714.5,492.3,716.8,491.3z"/>
			<path d="M789.9,493.2c4.1,2.2,6.2,5.8,6.2,10.7v16.8c0,0.9,0.2,1.7,0.7,2.3c0.4,0.6,1.1,0.9,2,0.9h2.9v9.4
				c-0.2,0.1-0.6,0.3-1.3,0.5c-0.7,0.2-1.6,0.5-2.9,0.7c-1.3,0.2-2.7,0.4-4.3,0.4c-3.2,0-5.7-0.5-7.8-1.4c-2-0.9-3.4-2.3-4.2-4
				c-2.1,1.6-4.4,2.9-6.9,3.9c-2.6,1-5.5,1.5-9,1.5c-10.1,0-15.2-4-15.2-12.1c0-4.2,1.1-7.4,3.4-9.6c2.3-2.2,5.5-3.7,9.7-4.5
				s9.8-1.2,16.6-1.2v-2.1c0-1.7-0.6-3-1.8-3.8c-1.2-0.9-2.7-1.3-4.5-1.3c-1.7,0-3.1,0.3-4.4,0.9c-1.2,0.6-1.8,1.5-1.8,2.9v0.3h-16
				c-0.1-0.3-0.1-0.7-0.1-1.1c0-4.1,1.9-7.3,5.8-9.7c3.9-2.4,9.4-3.6,16.7-3.6C780.5,489.9,785.8,491,789.9,493.2z M769.7,516.7
				c-2.2,1-3.3,2.4-3.3,4c0,2.7,1.8,4.1,5.5,4.1c2.1,0,4-0.6,5.6-1.7c1.6-1.1,2.4-2.6,2.4-4.2v-3.7
				C775.3,515.1,771.9,515.6,769.7,516.7z"/>
			<path d="M811.3,485.8v-11h16.2v11H811.3z M811.3,533.9v-43h16.2v43H811.3z"/>
			<path d="M882.5,494c2.5,2.8,3.7,6.8,3.7,12v27.9H870V508c0-1.8-0.5-3.3-1.4-4.4c-1-1.1-2.3-1.7-4-1.7c-2,0-3.6,0.7-4.9,2
				c-1.3,1.3-1.9,2.9-1.9,4.8v25.3h-16.2v-43h13.3l1.1,6.5c1.7-2.3,3.9-4.1,6.6-5.5c2.7-1.4,5.6-2,8.7-2
				C876.2,489.9,880,491.3,882.5,494z"/>
		</g>
	</g>
	<g>
		<path class="st0" d="M637,120.4c0-42.6-10.4-73.3-31.1-92.1C585.1,9.4,551.8,0,505.9,0H249.2l23.2,23.2l-23.2,23.2v0.1l23.2,23.2
			l-23.2,23.2v0.1l23.2,23.2l-23.2,23.2v0.1l23.2,23.2l-23.2,23.2v0.1l23.2,23.2l-23.2,23.2v0.1l23.2,23.2l-23.2,23.2v0.1l23.2,23.2
			l-23.2,23.2v0.1l23.2,23.2L249.2,371v0.1l23.2,23.2l-23.2,23.2h256.7c45.9,0,79.2-9.4,100-28.2c20.8-18.8,31.1-49.5,31.1-92.1
			v-23.3c0-27.9-6.6-49.6-19.8-65c13.2-15.5,19.8-37.1,19.8-65V120.4z M476.8,334.5h-41.5V221.1h19c12.4,0,22.5,10.1,22.5,22.5
			V334.5z M456.2,184c-19.1,0-34.6-15.5-34.6-34.6c0-19.1,15.5-34.6,34.6-34.6c19.1,0,34.6,15.5,34.6,34.6
			C490.7,168.5,475.2,184,456.2,184z"/>
		<rect x="394.5" y="106.7" class="st1" width="131.6" height="228.3"/>
		<path d="M536.4,211.4l-0.3-3.4c11.4-4.3,20.1-12,26.2-23.1c6.1-11.1,9.2-24.3,9.2-39.5c0-27-7.7-46.5-23.2-58.5
			c-15.4-12-37.8-18-67.1-18H359h-17.4h-26.8L337,91.1l-22.2,22.2l22.2,22.2l-22.1,22.1l22.1,22.1L314.7,202l22.2,22.2l-22.1,22.1
			l22.1,22.1l-22.2,22.2l22.2,22.2l-22.2,22.2h27.2v0h93.4V221.7h19c12.4,0,22.5,10.1,22.5,22.5v90.9h92.3v-83.5
			C569.1,228.2,558.2,214.8,536.4,211.4z M456.2,184.4c-19.1,0-34.5-15.5-34.5-34.5c0-19.1,15.5-34.5,34.5-34.5s34.5,15.5,34.5,34.5
			C490.7,169,475.2,184.4,456.2,184.4z"/>
	</g>
</g>
</svg>
